<svg width="30" height="33" viewBox="0 0 30 33" fill="none" xmlns="http://www.w3.org/2000/svg">
<path d="M9.6743 13.7447L0 15.8065L9.6919 18.6435C10.2947 18.8242 10.8382 19.163 11.2659 19.6247C11.6935 20.0864 11.9897 20.6542 12.1237 21.2691L14.5378 32.8641L17.1458 21.4806C17.2986 20.8452 17.6251 20.2648 18.0888 19.8042C18.5524 19.3437 19.135 19.0211 19.7714 18.8726L29.4632 16.6699L19.4894 13.8681C18.894 13.6683 18.3628 13.313 17.9507 12.839C17.5387 12.365 17.2608 11.7895 17.1458 11.172L14.9255 0L12.4056 11.1015C12.2506 11.757 11.9109 12.3544 11.4268 12.8229C10.9427 13.2914 10.3346 13.6113 9.6743 13.7447Z" fill="#0075FF" style="fill:#0075FF;fill:color(display-p3 0.0000 0.4588 1.0000);fill-opacity:1;"/>
</svg>
